<svg width="98" height="43" viewBox="0 0 98 43" fill="none" xmlns="http://www.w3.org/2000/svg">
<g filter="url(#filter0_d_39_151)">
<path d="M8.2089 22.742C7.52091 22.737 7.02669 22.4934 6.72621 22.0112C6.44162 21.5451 6.3019 20.96 6.30706 20.256C6.31269 19.4881 6.46337 18.5771 6.7591 17.5233C7.05483 16.4694 7.43897 15.3602 7.91151 14.1956C8.40006 13.0312 8.92837 11.899 9.49645 10.7992C10.0646 9.68329 10.6321 8.67142 11.1987 7.76355C11.7654 6.85568 12.2827 6.13145 12.7507 5.59087C13.2347 5.0504 13.6127 4.78116 13.8846 4.78315C14.0606 4.78444 14.2039 4.8895 14.3143 5.09831C14.4249 5.29113 14.5112 5.53177 14.5731 5.82023C14.6351 6.09269 14.6653 6.34092 14.6636 6.56491C14.6604 6.9969 14.5443 7.56406 14.3151 8.2664C14.1021 8.95286 13.7924 9.72661 13.3861 10.5877C12.9959 11.4328 12.5256 12.2934 11.9751 13.1694C11.4408 14.0295 10.8507 14.8572 10.2049 15.6525C9.57505 16.4479 8.90603 17.131 8.19783 17.7018C8.09867 18.1331 8.01556 18.5565 7.94851 18.972C7.89758 19.3717 7.87077 19.7555 7.86807 20.1235C7.8635 20.7475 7.9481 21.2121 8.12187 21.5174C8.29563 21.8227 8.55851 21.9766 8.9105 21.9792C9.34249 21.9823 9.76789 21.7934 10.1867 21.4125C10.6215 21.0317 11.025 20.5546 11.3972 19.9813C11.7855 19.3922 12.118 18.7866 12.3946 18.1646L12.7531 18.3592C12.1032 19.7145 11.3993 20.7894 10.6414 21.5838C9.88372 22.3623 9.07287 22.7484 8.2089 22.742ZM8.4198 16.8874C8.98389 16.3316 9.53257 15.6956 10.0658 14.9794C10.5992 14.2473 11.0928 13.4909 11.5465 12.7102C12.0162 11.9297 12.4298 11.1727 12.7872 10.4393C13.1446 9.70586 13.4214 9.05187 13.6176 8.4773C13.8139 7.88672 13.9132 7.43144 13.9156 7.11144C13.9168 6.95145 13.8935 6.84728 13.8459 6.79892C13.8142 6.75069 13.7824 6.72646 13.7504 6.72622C13.6224 6.72528 13.3969 6.93164 13.0739 7.34528C12.7669 7.74304 12.403 8.28439 11.9819 8.96932C11.5609 9.65426 11.1312 10.4351 10.6927 11.3119C10.2543 12.1888 9.83155 13.1057 9.42453 14.0627C9.0335 15.0199 8.6986 15.9615 8.4198 16.8874ZM13.6173 22.6857C12.9933 22.6811 12.5308 22.4777 12.2298 22.0755C11.9286 21.6893 11.78 21.2162 11.7842 20.6562C11.7868 20.2882 11.8542 19.8247 11.9863 19.2656C12.1344 18.7067 12.3227 18.1241 12.5512 17.5177C12.7797 16.8954 13.04 16.3133 13.332 15.7714C13.64 15.2296 13.9632 14.792 14.3016 14.4585C14.6402 14.1089 14.9695 13.9354 15.2895 13.9377C15.4335 13.9388 15.5531 13.9876 15.6484 14.0843C15.7598 14.1651 15.8149 14.2936 15.8136 14.4696C15.8122 14.6615 15.6819 14.9726 15.4227 15.4027C15.1796 15.8329 14.888 16.3268 14.5479 16.8843C14.2078 17.4419 13.9074 18.0317 13.6469 18.6538C13.4024 19.26 13.2781 19.8431 13.274 20.4031C13.2698 20.9791 13.363 21.3638 13.5536 21.5572C13.7442 21.7506 14.0395 21.8487 14.4395 21.8517C14.9834 21.8557 15.5614 21.5879 16.1734 21.0484C16.8014 20.509 17.4643 19.5618 18.1623 18.2069L18.3765 18.4484C17.9024 19.821 17.2227 20.872 16.3373 21.6016C15.468 22.3312 14.5613 22.6926 13.6173 22.6857ZM16.5778 11.7151C16.3218 11.7132 16.0903 11.6475 15.8832 11.518C15.6922 11.3886 15.5976 11.1879 15.5996 10.9159C15.6021 10.5799 15.7962 10.2933 16.1819 10.0561C16.5838 9.80307 16.9767 9.67794 17.3607 9.68076C17.6007 9.68252 17.7923 9.73992 17.9355 9.85297C18.0787 9.96603 18.1492 10.1585 18.1473 10.4305C18.145 10.7345 17.9749 11.0293 17.6368 11.3148C17.3148 11.5845 16.9618 11.7179 16.5778 11.7151ZM19.236 23.0389C18.74 23.0352 18.3978 22.7847 18.2094 22.2873C18.021 21.8059 17.9296 21.1732 17.9353 20.3893C17.9356 20.3573 17.9454 20.1093 17.9648 19.6455C17.9843 19.1656 18.0302 18.3659 18.1024 17.2464C18.1375 16.8146 18.1877 16.519 18.2529 16.3595C18.318 16.1999 18.5266 16.1215 18.8786 16.1241C19.1506 16.126 19.3182 16.1833 19.3814 16.2957C19.4607 16.3923 19.4992 16.5926 19.497 16.8966C19.4931 17.4246 19.4485 18.0483 19.3633 18.7677C19.2941 19.4712 19.2572 20.1349 19.2527 20.7589C19.2493 21.2229 19.2867 21.5672 19.3651 21.7918C19.4436 22.0004 19.5868 22.1054 19.7948 22.1069C20.0828 22.109 20.404 21.9514 20.7583 21.634C21.1127 21.3006 21.4759 20.8712 21.8478 20.3459C22.2197 19.8046 22.5679 19.2312 22.8924 18.6255C23.2328 18.02 23.5331 17.4382 23.7932 16.8801C23.8332 15.7924 23.9505 15.0732 24.145 14.7226C24.3557 14.3561 24.6131 14.174 24.9171 14.1763C25.221 14.1785 25.4362 14.2921 25.5626 14.517C25.705 14.726 25.7756 14.9186 25.7743 15.0946C25.7728 15.3026 25.6992 15.518 25.5536 15.741C25.424 15.964 25.2857 16.267 25.1389 16.6499C24.9921 17.0329 24.9161 17.5843 24.9108 18.3043C24.9089 18.5603 24.9309 18.8325 24.9768 19.1208C25.0227 19.4092 25.1249 19.6499 25.2835 19.8431C25.4421 20.0363 25.6894 20.1341 26.0254 20.1365C26.3614 20.139 26.6823 20.0133 26.9882 19.7596C27.3102 19.4899 27.6256 19.0282 27.9344 18.3745L28.2446 18.6168C27.8867 19.4142 27.4908 19.9473 27.0568 20.2161C26.6389 20.485 26.2379 20.6181 25.8539 20.6153C25.3259 20.6114 24.8873 20.4162 24.5381 20.0296C24.189 19.6431 23.9613 19.0574 23.855 18.2726C23.4653 19.0537 23.0037 19.8104 22.4703 20.5425C21.9531 21.2587 21.4127 21.8548 20.8492 22.3307C20.2857 22.8065 19.7479 23.0426 19.236 23.0389ZM30.0402 23.238C29.0642 23.2309 28.3303 22.9535 27.8383 22.4059C27.3621 21.8744 27.127 21.2166 27.1327 20.4327C27.138 19.7127 27.3195 18.954 27.6774 18.1566C28.0512 17.3593 28.5367 16.6108 29.1339 15.9112C29.747 15.2117 30.4152 14.6486 31.1383 14.2218C31.8616 13.7791 32.5752 13.5604 33.2792 13.5655C33.6472 13.5682 33.9825 13.6667 34.285 13.8609C34.6036 14.0552 34.7608 14.4484 34.7564 15.0404C34.752 15.6484 34.5637 16.223 34.1918 16.7643C33.8359 17.2897 33.3605 17.7582 32.7654 18.1699C32.1864 18.5816 31.5439 18.9209 30.8379 19.1878C30.1481 19.4387 29.4589 19.5937 28.7705 19.6526C28.7373 19.8124 28.7122 19.9642 28.6951 20.1081C28.6781 20.252 28.6691 20.3879 28.6681 20.5159C28.6664 20.7559 28.6886 20.9961 28.7349 21.2364C28.7971 21.4769 28.8994 21.7016 29.0419 21.9107C29.1845 22.1037 29.3754 22.2571 29.6146 22.3709C29.8697 22.4848 30.1813 22.5431 30.5493 22.5457C31.2373 22.5508 31.9187 22.3638 32.5935 21.9847C33.2684 21.5896 33.8962 21.0742 34.4769 20.4385C35.0575 19.8027 35.5507 19.1023 35.9563 18.3373L36.2427 18.5554C35.8037 19.5122 35.2456 20.3401 34.5685 21.0392C33.9073 21.7383 33.1833 22.277 32.3966 22.6553C31.6256 23.0496 30.8402 23.2439 30.0402 23.238ZM28.8938 19.1975C29.3268 19.0567 29.8164 18.8523 30.3623 18.5843C30.9084 18.3003 31.4309 17.9681 31.9297 17.5877C32.4445 17.2075 32.8636 16.7866 33.187 16.3249C33.5264 15.8634 33.6979 15.3766 33.7017 14.8646C33.703 14.6886 33.672 14.5524 33.6087 14.4559C33.5454 14.3595 33.4097 14.3105 33.2017 14.309C32.8177 14.3061 32.4086 14.4552 31.9744 14.756C31.5403 15.0408 31.1215 15.4217 30.718 15.8988C30.3145 16.3759 29.9507 16.9012 29.6264 17.4748C29.3022 18.0485 29.058 18.6227 28.8938 19.1975Z" fill="#DB198D"/>
</g>
<path d="M5.82531 29.7943C5.82531 28.8343 5.75331 28.0783 5.60931 27.5263C5.46531 26.9743 5.18931 26.4223 4.78131 25.8703L4.49331 25.4743L4.78131 25.0783H12.7373C14.0573 25.0783 14.9453 24.9223 15.4013 24.6103L15.8333 24.2863L16.1933 24.6103V29.1103L15.4733 29.3623C15.0413 28.0663 14.6093 27.1783 14.1773 26.6983C13.7693 26.2183 13.1813 25.9783 12.4133 25.9783H10.7933C10.1693 25.9783 9.76131 26.0983 9.56931 26.3383C9.37731 26.5543 9.28131 27.0343 9.28131 27.7783V32.8903H11.8733C12.5933 32.8903 13.1213 32.8183 13.4573 32.6743C13.8173 32.5303 14.0813 32.2423 14.2493 31.8103L14.4293 31.3063L14.8973 31.5943V35.6263L14.1053 35.9143L13.9613 35.1223C13.8653 34.6183 13.6013 34.2703 13.1693 34.0783C12.7373 33.8863 12.0413 33.7903 11.0813 33.7903H9.28131V39.2263C9.28131 39.9463 9.38931 40.4263 9.60531 40.6663C9.82131 40.8823 10.3013 40.9903 11.0453 40.9903H12.8093C13.5293 40.9903 14.0933 40.7383 14.5013 40.2343C14.9333 39.7303 15.3413 38.8543 15.7253 37.6063L16.4813 37.8583V42.1783L16.0853 42.5023C15.7493 42.2623 15.3653 42.0943 14.9333 41.9983C14.5013 41.9263 13.9013 41.8903 13.1333 41.8903H4.09731L3.84531 41.2423C4.44531 41.0743 4.87731 40.9183 5.14131 40.7743C5.40531 40.6063 5.58531 40.3903 5.68131 40.1263C5.77731 39.8623 5.82531 39.4543 5.82531 38.9023V29.7943ZM34.0164 25.4743C33.4164 25.9543 32.9724 26.3863 32.6844 26.7703C32.3964 27.1543 32.1444 27.6703 31.9284 28.3183L27.3924 41.8903H24.2604L19.6524 28.3183C19.4124 27.6463 19.1484 27.1183 18.8604 26.7343C18.5964 26.3503 18.1644 25.9303 17.5644 25.4743L17.8524 25.0783H24.4044L24.6204 25.7263L24.1164 25.8703C23.7324 25.9663 23.4684 26.1103 23.3244 26.3023C23.1804 26.4703 23.1084 26.7223 23.1084 27.0583C23.1084 27.2983 23.1924 27.6823 23.3604 28.2103L26.9604 39.0463L30.5604 28.2823C30.7284 27.7543 30.8124 27.3583 30.8124 27.0943C30.8124 26.8063 30.7284 26.5783 30.5604 26.4103C30.4164 26.2183 30.1644 26.0743 29.8044 25.9783L29.1564 25.7263L29.4084 25.0783H33.7284L34.0164 25.4743ZM36.9738 29.7943C36.9738 28.8343 36.9018 28.0783 36.7578 27.5263C36.6138 26.9743 36.3378 26.4223 35.9298 25.8703L35.6418 25.4743L35.9298 25.0783H43.8858C45.2058 25.0783 46.0938 24.9223 46.5498 24.6103L46.9818 24.2863L47.3418 24.6103V29.1103L46.6218 29.3623C46.1898 28.0663 45.7578 27.1783 45.3258 26.6983C44.9178 26.2183 44.3298 25.9783 43.5618 25.9783H41.9418C41.3178 25.9783 40.9098 26.0983 40.7178 26.3383C40.5258 26.5543 40.4298 27.0343 40.4298 27.7783V32.8903H43.0218C43.7418 32.8903 44.2698 32.8183 44.6058 32.6743C44.9658 32.5303 45.2298 32.2423 45.3978 31.8103L45.5778 31.3063L46.0458 31.5943V35.6263L45.2538 35.9143L45.1098 35.1223C45.0138 34.6183 44.7498 34.2703 44.3178 34.0783C43.8858 33.8863 43.1898 33.7903 42.2298 33.7903H40.4298V39.2263C40.4298 39.9463 40.5378 40.4263 40.7538 40.6663C40.9698 40.8823 41.4498 40.9903 42.1938 40.9903H43.9578C44.6778 40.9903 45.2418 40.7383 45.6498 40.2343C46.0818 39.7303 46.4898 38.8543 46.8738 37.6063L47.6298 37.8583V42.1783L47.2338 42.5023C46.8978 42.2623 46.5138 42.0943 46.0818 41.9983C45.6498 41.9263 45.0498 41.8903 44.2818 41.8903H35.2458L34.9938 41.2423C35.5938 41.0743 36.0258 40.9183 36.2898 40.7743C36.5538 40.6063 36.7338 40.3903 36.8298 40.1263C36.9258 39.8623 36.9738 39.4543 36.9738 38.9023V29.7943ZM65.1288 25.8703C64.7448 26.4223 64.4688 26.9863 64.3008 27.5623C64.1568 28.1383 64.0848 28.8823 64.0848 29.7943V39.8383C64.0848 40.3423 64.1928 40.7623 64.4088 41.0983L64.7328 41.5303L64.4088 41.8903H60.6648L52.6728 28.1023V37.1743C52.6728 38.1343 52.7448 38.9023 52.8888 39.4783C53.0568 40.0303 53.3328 40.5703 53.7168 41.0983L54.0408 41.5303L53.7168 41.8903H49.7568L49.5048 41.2423C50.1288 41.0743 50.5608 40.9183 50.8008 40.7743C51.0648 40.6303 51.2448 40.4263 51.3408 40.1623C51.4368 39.8983 51.4848 39.4783 51.4848 38.9023V29.3983C51.4848 28.3423 51.3888 27.5743 51.1968 27.0943C51.0048 26.6143 50.5848 26.0983 49.9368 25.5463L50.2248 25.0783H54.9048L62.9328 38.9743V28.0663C62.9328 27.3463 62.7768 26.8423 62.4648 26.5543C62.1768 26.2663 61.5648 25.9903 60.6288 25.7263L60.8448 25.0783H65.1288L65.4528 25.4743L65.1288 25.8703ZM75.5413 38.9023C75.5413 39.4543 75.5893 39.8743 75.6853 40.1623C75.8053 40.4263 75.9973 40.6303 76.2613 40.7743C76.5253 40.9183 76.9573 41.0743 77.5573 41.2423L77.3053 41.8903H71.0413L70.7533 41.5303L71.0413 41.0983C71.4493 40.5463 71.7253 39.9943 71.8693 39.4423C72.0373 38.8663 72.1093 38.1103 72.0853 37.1743V27.4903C72.0853 26.8903 72.0253 26.4943 71.9053 26.3023C71.8093 26.0863 71.6053 25.9783 71.2933 25.9783H70.8973C70.0813 25.9783 69.4693 26.2303 69.0613 26.7343C68.6533 27.2143 68.2333 28.0903 67.8013 29.3623L67.0813 29.1103V24.6103L67.4413 24.2863L67.8733 24.6103C68.3293 24.9223 69.2173 25.0783 70.5373 25.0783H77.1253C78.4453 25.0783 79.3333 24.9223 79.7893 24.6103L80.2213 24.2863L80.6173 24.6103V29.1103L79.8613 29.3623C79.4053 28.0423 78.9733 27.1543 78.5653 26.6983C78.1813 26.2183 77.5933 25.9783 76.8013 25.9783H76.3333C76.0213 25.9783 75.8053 26.0863 75.6853 26.3023C75.5893 26.4943 75.5413 26.8903 75.5413 27.4903V38.9023ZM85.6697 27.8503C85.6697 28.8103 86.0057 29.6023 86.6777 30.2263C87.3497 30.8263 88.3577 31.5103 89.7017 32.2783C90.6857 32.8303 91.4657 33.3103 92.0417 33.7183C92.6177 34.1263 93.1097 34.6423 93.5177 35.2663C93.9257 35.8903 94.1297 36.6103 94.1297 37.4263C94.1297 38.9143 93.5297 40.0903 92.3297 40.9543C91.1537 41.7943 89.5697 42.2143 87.5777 42.2143C85.8737 42.2143 84.4937 41.8903 83.4377 41.2423C82.4057 40.5943 81.8897 39.7183 81.8897 38.6143C81.8897 37.8943 82.1297 37.3303 82.6097 36.9223C83.1137 36.4903 83.7377 36.2743 84.4817 36.2743C85.0577 36.2743 85.6097 36.4183 86.1377 36.7063C85.3937 37.0903 85.0217 37.8463 85.0217 38.9743C85.0217 39.6463 85.2617 40.2223 85.7417 40.7023C86.2457 41.1583 86.9177 41.3863 87.7577 41.3863C88.6217 41.3863 89.2937 41.1463 89.7737 40.6663C90.2777 40.1863 90.5297 39.5863 90.5297 38.8663C90.5297 38.0263 90.2177 37.3423 89.5937 36.8143C88.9937 36.2623 88.0697 35.6263 86.8217 34.9063C85.8377 34.3783 85.0217 33.8863 84.3737 33.4303C83.7497 32.9743 83.2217 32.4103 82.7897 31.7383C82.3577 31.0663 82.1417 30.2743 82.1417 29.3623C82.1417 27.9943 82.7177 26.8903 83.8697 26.0503C85.0457 25.1863 86.5697 24.7543 88.4417 24.7543C90.0497 24.7543 91.3577 25.0663 92.3657 25.6903C93.3737 26.2903 93.8777 27.0943 93.8777 28.1023C93.8777 28.7503 93.6617 29.2663 93.2297 29.6503C92.7977 30.0103 92.2097 30.1903 91.4657 30.1903C90.9377 30.1903 90.3857 30.0583 89.8097 29.7943C90.1217 29.5543 90.3617 29.2543 90.5297 28.8943C90.6977 28.5343 90.7817 28.1623 90.7817 27.7783C90.7817 27.1783 90.5657 26.6743 90.1337 26.2663C89.7017 25.8343 89.0657 25.6183 88.2257 25.6183C87.4097 25.6183 86.7737 25.8343 86.3177 26.2663C85.8857 26.6983 85.6697 27.2263 85.6697 27.8503Z" fill="black"/>
<defs>
<filter id="filter0_d_39_151" x="0.97229" y="0" width="39.7368" height="50.7107" filterUnits="userSpaceOnUse" color-interpolation-filters="sRGB">
<feFlood flood-opacity="0" result="BackgroundImageFix"/>
<feColorMatrix in="SourceAlpha" type="matrix" values="0 0 0 0 0 0 0 0 0 0 0 0 0 0 0 0 0 0 127 0" result="hardAlpha"/>
<feOffset dy="4"/>
<feGaussianBlur stdDeviation="2"/>
<feComposite in2="hardAlpha" operator="out"/>
<feColorMatrix type="matrix" values="0 0 0 0 0 0 0 0 0 0 0 0 0 0 0 0 0 0 0.25 0"/>
<feBlend mode="normal" in2="BackgroundImageFix" result="effect1_dropShadow_39_151"/>
<feBlend mode="normal" in="SourceGraphic" in2="effect1_dropShadow_39_151" result="shape"/>
</filter>
</defs>
</svg>
